<svg width="20" height="21" viewBox="0 0 20 21" fill="none" xmlns="http://www.w3.org/2000/svg">
<path fill-rule="evenodd" clip-rule="evenodd" d="M9.99996 0.235352C4.48608 0.235352 0 4.72028 0 10.2353C0 15.7493 4.48608 20.2348 9.99996 20.2348C15.5138 20.2348 20 15.7493 20 10.2353C20 4.72028 15.5138 0.235352 9.99996 0.235352ZM15.575 6.90038L9.42112 13.8235C9.2696 13.9934 9.05846 14.081 8.84571 14.081C8.67691 14.081 8.50731 14.0256 8.3654 13.9133L4.51916 10.8359C4.18761 10.5708 4.13384 10.0864 4.39921 9.75415C4.66426 9.42298 5.1488 9.36867 5.48035 9.63426L8.7561 12.2547L14.4249 5.8778C14.7066 5.55953 15.1934 5.53103 15.5107 5.81384C15.8284 6.0961 15.8573 6.58211 15.575 6.90038Z" fill="#3CC68A"/>
</svg>
