<svg width="101" height="19" viewBox="0 0 101 19" fill="none" xmlns="http://www.w3.org/2000/svg">
<path d="M13.2518 4.64773L9.51882 8.38068L5.73473 4.64773L9.51882 0.863636L13.2518 4.64773ZM18.0586 9.45455L14.3256 13.2386L10.5927 9.45455L14.3256 5.72159L18.0586 9.45455ZM8.44496 9.45455L4.66087 13.2386L0.876776 9.45455L4.66087 5.72159L8.44496 9.45455ZM13.2518 14.3125L9.51882 18.0455L5.73473 14.3125L9.51882 10.5284L13.2518 14.3125ZM35.8796 7.49219H33.0799C33.0288 7.12997 32.9244 6.80824 32.7667 6.52699C32.609 6.24148 32.4066 5.99858 32.1594 5.7983C31.9123 5.59801 31.6268 5.4446 31.3029 5.33807C30.9833 5.23153 30.636 5.17827 30.261 5.17827C29.5835 5.17827 28.9933 5.34659 28.4904 5.68324C27.9876 6.01562 27.5977 6.50142 27.3207 7.14062C27.0437 7.77557 26.9052 8.54687 26.9052 9.45455C26.9052 10.3878 27.0437 11.1719 27.3207 11.8068C27.6019 12.4418 27.994 12.9212 28.4968 13.245C28.9996 13.5689 29.5813 13.7308 30.2418 13.7308C30.6126 13.7308 30.9556 13.6818 31.271 13.5838C31.5906 13.4858 31.8739 13.343 32.1211 13.1555C32.3683 12.9638 32.5728 12.7315 32.7347 12.4588C32.9009 12.1861 33.016 11.875 33.0799 11.5256L35.8796 11.5384C35.8072 12.1392 35.6261 12.7188 35.3363 13.277C35.0508 13.831 34.6651 14.3274 34.1793 14.7663C33.6978 15.201 33.1225 15.5462 32.4535 15.8018C31.7887 16.0533 31.0366 16.179 30.1971 16.179C29.0295 16.179 27.9854 15.9148 27.065 15.3864C26.1488 14.858 25.4244 14.093 24.8917 13.0916C24.3633 12.0902 24.0991 10.8778 24.0991 9.45455C24.0991 8.02699 24.3675 6.8125 24.9045 5.81108C25.4414 4.80966 26.1701 4.04687 27.0906 3.52273C28.011 2.99432 29.0465 2.73011 30.1971 2.73011C30.9556 2.73011 31.6587 2.83665 32.3065 3.04972C32.9585 3.26278 33.5359 3.57386 34.0387 3.98295C34.5415 4.38778 34.9506 4.88423 35.266 5.4723C35.5856 6.06037 35.7901 6.73366 35.8796 7.49219ZM40.6129 16.1854C39.9865 16.1854 39.4283 16.0767 38.9382 15.8594C38.4482 15.6378 38.0604 15.3118 37.7749 14.8814C37.4936 14.4467 37.353 13.9055 37.353 13.2578C37.353 12.7124 37.4531 12.2543 37.6534 11.8835C37.8537 11.5128 38.1264 11.2145 38.4716 10.9886C38.8168 10.7628 39.2088 10.5923 39.6477 10.4773C40.0909 10.3622 40.5554 10.2812 41.0412 10.2344C41.6122 10.1747 42.0724 10.1193 42.4219 10.0682C42.7713 10.0128 43.0249 9.93182 43.1825 9.82528C43.3402 9.71875 43.419 9.56108 43.419 9.35227V9.31392C43.419 8.90909 43.2912 8.59588 43.0355 8.37429C42.7841 8.1527 42.4261 8.0419 41.9616 8.0419C41.4716 8.0419 41.0817 8.15057 40.7919 8.3679C40.5021 8.58097 40.3104 8.84943 40.2166 9.1733L37.6982 8.96875C37.826 8.37216 38.0774 7.85653 38.4524 7.42188C38.8274 6.98295 39.3111 6.64631 39.9034 6.41193C40.5 6.1733 41.1903 6.05398 41.9744 6.05398C42.5199 6.05398 43.0419 6.1179 43.5405 6.24574C44.0433 6.37358 44.4886 6.57173 44.8764 6.8402C45.2685 7.10866 45.5774 7.45384 45.8033 7.87571C46.0291 8.29332 46.142 8.79403 46.142 9.37784V16H43.5597V14.6385H43.483C43.3253 14.9453 43.1143 15.2159 42.8501 15.4503C42.5859 15.6804 42.2685 15.8615 41.8977 15.9936C41.527 16.1214 41.0987 16.1854 40.6129 16.1854ZM41.3928 14.3061C41.7933 14.3061 42.147 14.2273 42.4538 14.0696C42.7607 13.9077 43.0014 13.6903 43.1761 13.4176C43.3509 13.1449 43.4382 12.8359 43.4382 12.4908V11.4489C43.353 11.5043 43.2358 11.5554 43.0866 11.6023C42.9418 11.6449 42.7777 11.6854 42.5945 11.7237C42.4112 11.7578 42.228 11.7898 42.0447 11.8196C41.8615 11.8452 41.6953 11.8686 41.5462 11.8899C41.2266 11.9368 40.9474 12.0114 40.7088 12.1136C40.4702 12.2159 40.2848 12.3544 40.1527 12.5291C40.0206 12.6996 39.9545 12.9126 39.9545 13.1683C39.9545 13.5391 40.0888 13.8224 40.3572 14.0185C40.63 14.2102 40.9751 14.3061 41.3928 14.3061ZM48.2546 16V6.18182H50.8945V7.89489H50.9968C51.1758 7.28551 51.4762 6.82528 51.8981 6.5142C52.32 6.19886 52.8058 6.04119 53.3555 6.04119C53.4918 6.04119 53.6388 6.04972 53.7965 6.06676C53.9542 6.08381 54.0927 6.10724 54.212 6.13707V8.55327C54.0842 8.51491 53.9073 8.48082 53.6815 8.45099C53.4556 8.42116 53.2489 8.40625 53.0614 8.40625C52.6609 8.40625 52.3029 8.49361 51.9876 8.66832C51.6765 8.83878 51.4293 9.07741 51.2461 9.38423C51.0671 9.69105 50.9776 10.0447 50.9776 10.4453V16H48.2546ZM59.5989 16.1918C58.606 16.1918 57.7473 15.9808 57.0229 15.5589C56.3027 15.1328 55.7466 14.5405 55.3546 13.782C54.9625 13.0192 54.7665 12.1349 54.7665 11.1293C54.7665 10.1151 54.9625 9.22869 55.3546 8.47017C55.7466 7.70739 56.3027 7.11506 57.0229 6.69318C57.7473 6.26705 58.606 6.05398 59.5989 6.05398C60.5918 6.05398 61.4483 6.26705 62.1685 6.69318C62.8929 7.11506 63.4512 7.70739 63.8432 8.47017C64.2353 9.22869 64.4313 10.1151 64.4313 11.1293C64.4313 12.1349 64.2353 13.0192 63.8432 13.782C63.4512 14.5405 62.8929 15.1328 62.1685 15.5589C61.4483 15.9808 60.5918 16.1918 59.5989 16.1918ZM59.6117 14.0824C60.0634 14.0824 60.4405 13.9545 60.7431 13.6989C61.0456 13.4389 61.2736 13.0852 61.427 12.6378C61.5847 12.1903 61.6635 11.6811 61.6635 11.1101C61.6635 10.5391 61.5847 10.0298 61.427 9.58239C61.2736 9.13494 61.0456 8.78125 60.7431 8.52131C60.4405 8.26136 60.0634 8.13139 59.6117 8.13139C59.1557 8.13139 58.7722 8.26136 58.4611 8.52131C58.1543 8.78125 57.9221 9.13494 57.7644 9.58239C57.611 10.0298 57.5343 10.5391 57.5343 11.1101C57.5343 11.6811 57.611 12.1903 57.7644 12.6378C57.9221 13.0852 58.1543 13.4389 58.4611 13.6989C58.7722 13.9545 59.1557 14.0824 59.6117 14.0824ZM72.498 11.8196V6.18182H75.2211V16H72.6067V14.2166H72.5044C72.2828 14.7919 71.9142 15.2543 71.3986 15.6037C70.8873 15.9531 70.263 16.1278 69.5257 16.1278C68.8695 16.1278 68.2921 15.9787 67.7935 15.6804C67.2949 15.3821 66.905 14.9581 66.6238 14.4084C66.3468 13.8587 66.2061 13.2003 66.2019 12.4332V6.18182H68.9249V11.9474C68.9292 12.527 69.0847 12.9851 69.3915 13.3217C69.6983 13.6584 70.1096 13.8267 70.6252 13.8267C70.9533 13.8267 71.2601 13.7521 71.5456 13.603C71.8311 13.4496 72.0613 13.2237 72.236 12.9254C72.415 12.6271 72.5023 12.2585 72.498 11.8196ZM85.5682 8.98153L83.0753 9.13494C83.0327 8.92187 82.9411 8.73011 82.8004 8.55966C82.6598 8.38494 82.4744 8.24645 82.2443 8.14418C82.0185 8.03764 81.7479 7.98438 81.4325 7.98438C81.0107 7.98438 80.6548 8.07386 80.3651 8.25284C80.0753 8.42756 79.9304 8.66193 79.9304 8.95597C79.9304 9.19034 80.0241 9.38849 80.2116 9.55043C80.3991 9.71236 80.7209 9.84233 81.1768 9.94034L82.9538 10.2983C83.9084 10.4943 84.62 10.8097 85.0888 11.2443C85.5575 11.679 85.7919 12.25 85.7919 12.9574C85.7919 13.6009 85.6023 14.1655 85.223 14.6513C84.848 15.1371 84.3324 15.5163 83.6761 15.7891C83.0241 16.0575 82.272 16.1918 81.4197 16.1918C80.12 16.1918 79.0845 15.9212 78.3132 15.38C77.5462 14.8345 77.0966 14.093 76.9645 13.1555L79.6428 13.0149C79.7237 13.4112 79.9197 13.7138 80.2308 13.9226C80.5419 14.1271 80.9403 14.2294 81.4261 14.2294C81.9034 14.2294 82.2869 14.1378 82.5767 13.9545C82.8707 13.767 83.0199 13.5263 83.0241 13.2322C83.0199 12.9851 82.9155 12.7827 82.7109 12.625C82.5064 12.4631 82.1911 12.3395 81.7649 12.2543L80.0646 11.9155C79.1058 11.7237 78.392 11.3913 77.9233 10.9183C77.4588 10.4453 77.2266 9.84233 77.2266 9.10938C77.2266 8.47869 77.397 7.93537 77.7379 7.4794C78.0831 7.02344 78.5668 6.67188 79.1889 6.42472C79.8153 6.17756 80.5483 6.05398 81.3878 6.05398C82.6278 6.05398 83.6037 6.31605 84.3153 6.8402C85.0313 7.36435 85.4489 8.07812 85.5682 8.98153ZM91.981 16.1918C90.9711 16.1918 90.1017 15.9872 89.373 15.5781C88.6486 15.1648 88.0904 14.581 87.6983 13.8267C87.3063 13.0682 87.1103 12.1712 87.1103 11.1357C87.1103 10.1257 87.3063 9.23935 87.6983 8.47656C88.0904 7.71378 88.6422 7.11932 89.3539 6.69318C90.0698 6.26705 90.9093 6.05398 91.8723 6.05398C92.5201 6.05398 93.123 6.15838 93.6813 6.36719C94.2438 6.57173 94.7338 6.88068 95.1515 7.29403C95.5733 7.70739 95.9015 8.22727 96.1358 8.85369C96.3702 9.47585 96.4874 10.2045 96.4874 11.0398V11.7876H88.1969V10.1001H93.9242C93.9242 9.7081 93.839 9.3608 93.6685 9.05824C93.498 8.75568 93.2615 8.51918 92.959 8.34872C92.6607 8.17401 92.3134 8.08665 91.9171 8.08665C91.5037 8.08665 91.1373 8.18253 90.8176 8.37429C90.5023 8.56179 90.2551 8.81534 90.0762 9.13494C89.8972 9.45028 89.8056 9.80185 89.8013 10.1896V11.794C89.8013 12.2798 89.8908 12.6996 90.0698 13.0533C90.253 13.407 90.5108 13.6797 90.8432 13.8714C91.1756 14.0632 91.5698 14.1591 92.0257 14.1591C92.3283 14.1591 92.6053 14.1165 92.8567 14.0312C93.1081 13.946 93.3233 13.8182 93.5023 13.6477C93.6813 13.4773 93.8176 13.2685 93.9114 13.0213L96.4299 13.1875C96.302 13.7926 96.04 14.321 95.6436 14.7727C95.2516 15.2202 94.7445 15.5696 94.1223 15.821C93.5044 16.0682 92.7907 16.1918 91.981 16.1918ZM100.987 2.90909V16H98.2644V2.90909H100.987Z" fill="black"/>
</svg>
