<svg width="78" height="78" viewBox="0 0 78 78" fill="none" xmlns="http://www.w3.org/2000/svg">
<g filter="url(#filter0_d_0_12135)">
<rect x="4" width="70" height="70" rx="35" fill="#6AB04C"/>
</g>
<path d="M51.7249 32.1147C51.7166 32.1147 51.7124 32.1147 51.704 32.1147C51.3821 27.0263 47.151 23 41.9831 23C37.2126 23 33.2448 26.4285 32.4044 30.9523C32.2957 30.9482 32.1828 30.944 32.0741 30.944C28.5202 30.944 25.5224 33.2979 24.5441 36.5298C24.3935 36.5173 24.2388 36.5089 24.0841 36.5089C21.2787 36.5089 19 38.7834 19 41.5931C19 44.4028 21.2745 46.6773 24.08 46.6773C24.1218 46.6773 51.7208 46.6773 51.7208 46.6773C55.743 46.6773 59 43.4161 59 39.398C59 35.3801 55.7472 32.1147 51.7249 32.1147Z" fill="white"/>
<defs>
<filter id="filter0_d_0_12135" x="0" y="0" width="78" height="78" filterUnits="userSpaceOnUse" color-interpolation-filters="sRGB">
<feFlood flood-opacity="0" result="BackgroundImageFix"/>
<feColorMatrix in="SourceAlpha" type="matrix" values="0 0 0 0 0 0 0 0 0 0 0 0 0 0 0 0 0 0 127 0" result="hardAlpha"/>
<feOffset dy="4"/>
<feGaussianBlur stdDeviation="2"/>
<feComposite in2="hardAlpha" operator="out"/>
<feColorMatrix type="matrix" values="0 0 0 0 0 0 0 0 0 0 0 0 0 0 0 0 0 0 0.25 0"/>
<feBlend mode="normal" in2="BackgroundImageFix" result="effect1_dropShadow_0_12135"/>
<feBlend mode="normal" in="SourceGraphic" in2="effect1_dropShadow_0_12135" result="shape"/>
</filter>
</defs>
</svg>
