<svg width="80" height="13" viewBox="0 0 80 13" fill="none" xmlns="http://www.w3.org/2000/svg">
<path opacity="0.6" d="M6.272 12.192C5.17333 12.192 4.208 11.952 3.376 11.472C2.55467 10.9813 1.90933 10.2987 1.44 9.424C0.981333 8.54933 0.752 7.54133 0.752 6.4C0.752 5.25867 0.981333 4.256 1.44 3.392C1.90933 2.51733 2.55467 1.83467 3.376 1.344C4.208 0.853333 5.17333 0.608 6.272 0.608C7.38133 0.608 8.34667 0.853333 9.168 1.344C10 1.83467 10.6453 2.51733 11.104 3.392C11.5627 4.256 11.792 5.25867 11.792 6.4C11.792 7.54133 11.5627 8.54933 11.104 9.424C10.6453 10.2987 10 10.9813 9.168 11.472C8.34667 11.952 7.38133 12.192 6.272 12.192ZM6.272 11.008C7.09333 11.008 7.81333 10.8267 8.432 10.464C9.06133 10.0907 9.54667 9.56267 9.888 8.88C10.24 8.18667 10.416 7.36 10.416 6.4C10.416 5.44 10.24 4.61867 9.888 3.936C9.54667 3.25333 9.06133 2.73067 8.432 2.368C7.81333 1.99467 7.09333 1.808 6.272 1.808C5.45067 1.808 4.72533 1.99467 4.096 2.368C3.47733 2.73067 2.992 3.25333 2.64 3.936C2.29867 4.61867 2.128 5.44 2.128 6.4C2.128 7.36 2.29867 8.18667 2.64 8.88C2.992 9.56267 3.47733 10.0907 4.096 10.464C4.72533 10.8267 5.45067 11.008 6.272 11.008ZM16.5469 12.192C15.6082 12.192 14.8615 11.9093 14.3069 11.344C13.7522 10.768 13.4749 9.888 13.4749 8.704V4.064H14.8189V8.56C14.8189 10.2133 15.4962 11.04 16.8509 11.04C17.5442 11.04 18.1149 10.7947 18.5629 10.304C19.0215 9.80267 19.2509 9.09333 19.2509 8.176V4.064H20.5949V12H19.3789L19.2829 10.576C19.0375 11.0773 18.6695 11.472 18.1789 11.76C17.6989 12.048 17.1549 12.192 16.5469 12.192ZM22.8071 12V4.064H24.0231L24.1351 5.584C24.3805 5.06133 24.7538 4.64533 25.2551 4.336C25.7565 4.02667 26.3751 3.872 27.1111 3.872V5.28H26.7431C26.2738 5.28 25.8418 5.36533 25.4471 5.536C25.0525 5.696 24.7378 5.97333 24.5031 6.368C24.2685 6.76267 24.1511 7.30667 24.1511 8V12H22.8071ZM36.502 12.192C35.7447 12.192 35.062 12.0213 34.454 11.68C33.8567 11.328 33.382 10.8427 33.03 10.224C32.6887 9.59467 32.518 8.864 32.518 8.032C32.518 7.2 32.6887 6.47467 33.03 5.856C33.382 5.22667 33.8567 4.74133 34.454 4.4C35.062 4.048 35.7447 3.872 36.502 3.872C37.4407 3.872 38.23 4.11733 38.87 4.608C39.5207 5.09867 39.9313 5.75467 40.102 6.576H38.726C38.6193 6.08533 38.358 5.70667 37.942 5.44C37.526 5.16267 37.0407 5.024 36.486 5.024C36.038 5.024 35.6167 5.136 35.222 5.36C34.8273 5.584 34.5073 5.92 34.262 6.368C34.0167 6.816 33.894 7.37067 33.894 8.032C33.894 8.69333 34.0167 9.248 34.262 9.696C34.5073 10.144 34.8273 10.4853 35.222 10.72C35.6167 10.944 36.038 11.056 36.486 11.056C37.0407 11.056 37.526 10.9227 37.942 10.656C38.358 10.3787 38.6193 9.98933 38.726 9.488H40.102C39.942 10.288 39.5367 10.9387 38.886 11.44C38.2353 11.9413 37.4407 12.192 36.502 12.192ZM41.979 12V0.48H43.323V12H41.979ZM46.3419 2.304C46.0752 2.304 45.8512 2.21867 45.6699 2.048C45.4992 1.86667 45.4139 1.64267 45.4139 1.376C45.4139 1.12 45.4992 0.906666 45.6699 0.735999C45.8512 0.565333 46.0752 0.48 46.3419 0.48C46.5979 0.48 46.8165 0.565333 46.9979 0.735999C47.1792 0.906666 47.2699 1.12 47.2699 1.376C47.2699 1.64267 47.1792 1.86667 46.9979 2.048C46.8165 2.21867 46.5979 2.304 46.3419 2.304ZM45.6699 12V4.064H47.0139V12H45.6699ZM52.922 12.192C52.1647 12.192 51.4927 12.0213 50.906 11.68C50.3193 11.328 49.8553 10.8427 49.514 10.224C49.1833 9.60533 49.018 8.87467 49.018 8.032C49.018 7.2 49.1833 6.47467 49.514 5.856C49.8447 5.22667 50.3033 4.74133 50.89 4.4C51.4873 4.048 52.1753 3.872 52.954 3.872C53.722 3.872 54.3833 4.048 54.938 4.4C55.5033 4.74133 55.9353 5.19467 56.234 5.76C56.5327 6.32533 56.682 6.93333 56.682 7.584C56.682 7.70133 56.6767 7.81867 56.666 7.936C56.666 8.05333 56.666 8.18667 56.666 8.336H50.346C50.378 8.944 50.5167 9.45067 50.762 9.856C51.018 10.2507 51.3327 10.5493 51.706 10.752C52.09 10.9547 52.4953 11.056 52.922 11.056C53.4767 11.056 53.9407 10.928 54.314 10.672C54.6873 10.416 54.9593 10.0693 55.13 9.632H56.458C56.2447 10.368 55.834 10.9813 55.226 11.472C54.6287 11.952 53.8607 12.192 52.922 12.192ZM52.922 5.008C52.282 5.008 51.7113 5.20533 51.21 5.6C50.7193 5.984 50.4367 6.54933 50.362 7.296H55.354C55.322 6.58133 55.0767 6.02133 54.618 5.616C54.1593 5.21067 53.594 5.008 52.922 5.008ZM58.4634 12V4.064H59.6794L59.7594 5.488C60.0154 4.98667 60.3834 4.592 60.8634 4.304C61.3434 4.016 61.8874 3.872 62.4954 3.872C63.434 3.872 64.1807 4.16 64.7354 4.736C65.3007 5.30133 65.5834 6.176 65.5834 7.36V12H64.2394V7.504C64.2394 5.85067 63.5567 5.024 62.1914 5.024C61.5087 5.024 60.938 5.27467 60.4794 5.776C60.0314 6.26667 59.8074 6.97067 59.8074 7.888V12H58.4634ZM70.7556 12C70.0303 12 69.4596 11.824 69.0436 11.472C68.6276 11.12 68.4196 10.4853 68.4196 9.568V5.2H67.0436V4.064H68.4196L68.5956 2.16H69.7636V4.064H72.0996V5.2H69.7636V9.568C69.7636 10.0693 69.865 10.4107 70.0676 10.592C70.2703 10.7627 70.6276 10.848 71.1396 10.848H71.9716V12H70.7556ZM76.8471 12.192C75.8978 12.192 75.1085 11.952 74.4791 11.472C73.8498 10.992 73.4818 10.3413 73.3751 9.52H74.7511C74.8365 9.936 75.0551 10.2987 75.4071 10.608C75.7698 10.9067 76.2551 11.056 76.8631 11.056C77.4285 11.056 77.8445 10.9387 78.1111 10.704C78.3778 10.4587 78.5111 10.1707 78.5111 9.84C78.5111 9.36 78.3351 9.04 77.9831 8.88C77.6418 8.72 77.1565 8.576 76.5271 8.448C76.1005 8.36267 75.6738 8.24 75.2471 8.08C74.8205 7.92 74.4631 7.696 74.1751 7.408C73.8871 7.10933 73.7431 6.72 73.7431 6.24C73.7431 5.54667 73.9991 4.98133 74.5111 4.544C75.0338 4.096 75.7378 3.872 76.6231 3.872C77.4658 3.872 78.1538 4.08533 78.6871 4.512C79.2311 4.928 79.5458 5.52533 79.6311 6.304H78.3031C78.2498 5.89867 78.0738 5.584 77.7751 5.36C77.4871 5.12533 77.0978 5.008 76.6071 5.008C76.1271 5.008 75.7538 5.10933 75.4871 5.312C75.2311 5.51467 75.1031 5.78133 75.1031 6.112C75.1031 6.432 75.2685 6.68267 75.5991 6.864C75.9405 7.04533 76.3991 7.2 76.9751 7.328C77.4658 7.43467 77.9298 7.568 78.3671 7.728C78.8151 7.87733 79.1778 8.10667 79.4551 8.416C79.7431 8.71467 79.8871 9.152 79.8871 9.728C79.8978 10.4427 79.6258 11.0347 79.0711 11.504C78.5271 11.9627 77.7858 12.192 76.8471 12.192Z" fill="#566272"/>
</svg>
